<svg height="512pt" viewBox="-18 0 512 512.14993" width="512pt" xmlns="http://www.w3.org/2000/svg"><path d="m448.667969 176.550781c1.09375-6.371093 1.636719-12.824219 1.613281-19.289062 0-86.808594-94.835938-157.261719-211.863281-157.261719-117.027344 0-211.859375 70.453125-211.859375 157.261719-.023438 6.464843.515625 12.917969 1.613281 19.289062zm0 0" fill="#bdc3c7"/><g fill="#95a5a5"><path d="m238.417969 88.277344c-4.875 0-8.824219-3.953125-8.824219-8.828125v-44.140625c0-4.875 3.949219-8.824219 8.824219-8.824219 4.878906 0 8.828125 3.949219 8.828125 8.824219v44.140625c0 4.875-3.949219 8.828125-8.828125 8.828125zm0 0"/><path d="m167.703125 96.839844c-4.050781-.007813-7.574219-2.765625-8.554687-6.691406l-8.738282-35.046876c-.847656-3.089843.042969-6.394531 2.328125-8.636718 2.289063-2.242188 5.609375-3.070313 8.679688-2.164063 3.074219.90625 5.414062 3.402344 6.117187 6.527344l8.738282 35.046875c.65625 2.636719.0625 5.429688-1.609376 7.574219-1.675781 2.140625-4.242187 3.390625-6.960937 3.390625zm0 0"/><path d="m114.832031 114.757812c-1.738281.003907-3.441406-.511718-4.890625-1.480468l-26.480468-17.65625c-3.960938-2.742188-4.992188-8.148438-2.324219-12.15625 2.671875-4.003906 8.058593-5.132813 12.113281-2.535156l26.484375 17.65625c3.234375 2.160156 4.675781 6.179687 3.550781 9.90625-1.128906 3.722656-4.5625 6.265624-8.453125 6.265624zm0 0"/><path d="m309.136719 96.839844c-2.71875 0-5.285157-1.25-6.960938-3.390625-1.671875-2.144531-2.269531-4.9375-1.609375-7.574219l8.738282-35.046875c.703124-3.125 3.042968-5.621094 6.117187-6.527344 3.070313-.90625 6.390625-.078125 8.675781 2.164063 2.289063 2.242187 3.179688 5.546875 2.332032 8.636718l-8.738282 35.046876c-.980468 3.925781-4.503906 6.683593-8.554687 6.691406zm0 0"/><path d="m362.007812 114.757812c-3.894531.003907-7.328124-2.539062-8.460937-6.261718-1.128906-3.726563.3125-7.75 3.550781-9.910156l26.484375-17.65625c2.621094-1.8125 6.019531-2.074219 8.890625-.675782 2.867188 1.398438 4.757813 4.234375 4.945313 7.421875.183593 3.183594-1.363281 6.222657-4.046875 7.945313l-26.484375 17.65625c-1.445313.964844-3.140625 1.480468-4.878907 1.480468zm0 0"/></g><path d="m238.417969 458.769531-.441407.265625-95.070312 50.582032c-6.128906 3.582031-13.761719 3.347656-19.660156-.597657-5.898438-3.945312-9.027344-10.910156-8.058594-17.941406l15.535156-52.523437zm0 0" fill="#802d40"/><path d="m238.417969 458.769531.441406.265625 95.074219 50.582032c6.128906 3.582031 13.761718 3.347656 19.660156-.597657 5.898438-3.945312 9.027344-10.910156 8.058594-17.941406l-15.535156-52.523437zm0 0" fill="#802d40"/><path d="m476.765625 269.242188c0-104.820313-106.710937-189.792969-238.347656-189.792969-131.632813 0-238.3437502 84.972656-238.3437502 189.792969 0 104.820312 106.7109372 189.792968 238.3437502 189.792968 131.636719 0 238.347656-84.972656 238.347656-189.792968zm0 0" fill="#d75e72"/><path d="m432.625 326.621094h-388.410156c0-78.210938 82.183594-187.941406 185.378906-193.855469 2.910156-.261719 5.824219-.351563 8.824219-.351563 3.003906 0 5.917969.089844 8.828125.351563 103.195312 5.914063 185.378906 115.644531 185.378906 193.855469zm0 0" fill="#802d40"/><path d="m247.246094 132.765625v52.613281c0 4.875-3.949219 8.828125-8.828125 8.828125-4.875 0-8.824219-3.953125-8.824219-8.828125v-52.613281c2.910156-.261719 5.824219-.351563 8.824219-.351563 3.003906 0 5.917969.089844 8.828125.351563zm0 0" fill="#cc4b4c"/><path d="m432.625 337c0 67.402344-86.949219 122.035156-194.207031 122.035156-107.253907 0-194.203125-54.632812-194.203125-122.035156 0-67.398438 86.949218-151.621094 194.203125-151.621094 107.257812 0 194.207031 84.222656 194.207031 151.621094zm0 0" fill="#fdd7ad"/><path d="m185.453125 300.136719c0 9.75-7.902344 17.65625-17.652344 17.65625-9.753906 0-17.65625-7.90625-17.65625-17.65625s7.902344-17.652344 17.65625-17.652344c9.75 0 17.652344 7.902344 17.652344 17.652344zm0 0" fill="#2c3e50"/><path d="m317.867188 300.136719c0 9.75-7.902344 17.65625-17.652344 17.65625-9.753906 0-17.65625-7.90625-17.65625-17.65625s7.902344-17.652344 17.65625-17.652344c9.75 0 17.652344 7.902344 17.652344 17.652344zm0 0" fill="#2c3e50"/><path d="m256.074219 353.101562h-35.308594c-4.875 0-8.828125-3.949218-8.828125-8.824218s3.953125-8.828125 8.828125-8.828125h35.308594c4.875 0 8.828125 3.953125 8.828125 8.828125s-3.953125 8.824218-8.828125 8.824218zm0 0" fill="#f09372"/><path d="m247.246094 317.792969h-17.652344c-4.875 0-8.828125-3.953125-8.828125-8.828125s3.953125-8.828125 8.828125-8.828125h17.652344c4.875 0 8.828125 3.953125 8.828125 8.828125s-3.953125 8.828125-8.828125 8.828125zm0 0" fill="#f09372"/><path d="m238.417969 414.898438c-37.96875.707031-74.832031-12.8125-103.34375-37.898438-3.449219-3.445312-3.457031-9.035156-.011719-12.488281 3.445312-3.449219 9.035156-3.457031 12.484375-.011719 25.3125 21.582031 57.613281 33.222656 90.871094 32.742188 4.878906 0 8.828125 3.953124 8.828125 8.828124s-3.949219 8.828126-8.828125 8.828126zm0 0" fill="#f09372"/><path d="m238.417969 414.898438c-4.875 0-8.824219-3.953126-8.824219-8.828126s3.949219-8.828124 8.824219-8.828124c33.265625.480468 65.566406-11.15625 90.882812-32.742188 3.46875-3.339844 8.972657-3.285156 12.375.125 3.398438 3.410156 3.4375 8.914062.089844 12.375-28.511719 25.085938-65.375 38.605469-103.347656 37.898438zm0 0" fill="#f09372"/><path d="m123.660156 273.65625c-3.253906-.003906-6.242187-1.796875-7.777344-4.667969-1.535156-2.871093-1.363281-6.351562.441407-9.058593 14.125-19.148438 36.511719-30.4375 60.300781-30.414063 4.878906 0 8.828125 3.953125 8.828125 8.828125s-3.949219 8.828125-8.828125 8.828125c-17.894531-.03125-34.777344 8.316406-45.621094 22.554687-1.636718 2.453126-4.390625 3.929688-7.34375 3.929688zm0 0" fill="#af8066"/><path d="m353.179688 273.65625c-2.941407.003906-5.691407-1.457031-7.335938-3.894531-10.8125-14.285157-27.714844-22.652344-45.628906-22.589844-4.878906 0-8.828125-3.953125-8.828125-8.828125s3.949219-8.828125 8.828125-8.828125c23.792968-.027344 46.183594 11.261719 60.308594 30.414063 1.808593 2.707031 1.976562 6.191406.441406 9.0625-1.539063 2.871093-4.53125 4.664062-7.785156 4.664062zm0 0" fill="#af8066"/></svg>